<?xml version="1.0" encoding="iso-8859-1"?>
<!-- Generator: Adobe Illustrator 18.1.1, SVG Export Plug-In . SVG Version: 6.00 Build 0)  -->
<svg version="1.1" id="Capa_1" xmlns="http://www.w3.org/2000/svg" xmlns:xlink="http://www.w3.org/1999/xlink" x="0px" y="0px"
	 viewBox="0 0 285.001 285.001" style="enable-background:new 0 0 285.001 285.001;" xml:space="preserve">
<g>
	<g>
		<path d="M284.736,265.439l-27.121-94.643c-0.835-2.907-3.501-4.911-6.525-4.911h-11.517v48.493
			c0,11.217-9.129,20.349-20.349,20.349H65.911c-11.226,0-20.349-9.132-20.349-20.349c0,0-0.099,0.139-0.117,0.167
			c0-0.056-0.019-0.108-0.019-0.167v-48.493H33.91c-3.024,0-5.69,2.004-6.525,4.911L0.264,265.439
			c-0.587,2.047-0.186,4.246,1.102,5.95c1.273,1.701,3.29,2.7,5.411,2.7c0.025,0.003,271.446,0,271.446,0
			c2.122,0,4.139-0.999,5.412-2.7C284.922,269.685,285.323,267.486,284.736,265.439z"/>
		<path d="M47.325,116.279l95.113-81.778l95.112,81.778c1.917,1.648,4.273,2.458,6.611,2.458c2.87,0,5.715-1.2,7.726-3.538
			c3.661-4.264,3.191-10.688-1.083-14.346L149.068,13.371c-3.804-3.281-9.457-3.281-13.267,0L34.059,100.854
			c-4.262,3.658-4.75,10.082-1.088,14.346C36.65,119.461,43.083,119.947,47.325,116.279z"/>
		<path d="M138.004,47.465l-76.663,66.146c-1.484,1.299-2.345,3.17-2.345,5.14v95.629c0,3.748,3.037,6.779,6.779,6.779h153.313
			c3.754,0,6.791-3.031,6.791-6.779v-95.629c0-1.97-0.86-3.841-2.363-5.14l-76.65-66.146
			C144.324,45.272,140.546,45.272,138.004,47.465z M135.647,191.164c0,3.745-3.037,6.785-6.779,6.785h-23.737
			c-3.755,0-6.792-3.04-6.792-6.785v-23.762c0-3.745,3.037-6.782,6.792-6.782h23.737c3.742,0,6.779,3.037,6.779,6.782V191.164z
			 M135.647,140.27c0,3.748-3.037,6.785-6.779,6.785h-23.737c-3.755,0-6.792-3.037-6.792-6.785v-23.759
			c0-3.748,3.037-6.785,6.792-6.785h23.737c3.742,0,6.779,3.037,6.779,6.785V140.27z M149.217,116.511
			c0-3.748,3.03-6.785,6.791-6.785h23.732c3.741,0,6.778,3.037,6.778,6.785v23.759c0,3.748-3.037,6.785-6.778,6.785h-23.732
			c-3.761,0-6.791-3.037-6.791-6.785V116.511z M149.217,167.401c0-3.745,3.03-6.782,6.791-6.782h23.732
			c3.741,0,6.778,3.037,6.778,6.782v23.762c0,3.745-3.037,6.785-6.778,6.785h-23.732c-3.761,0-6.791-3.04-6.791-6.785V167.401z"/>
	</g>
</g>
<g>
</g>
<g>
</g>
<g>
</g>
<g>
</g>
<g>
</g>
<g>
</g>
<g>
</g>
<g>
</g>
<g>
</g>
<g>
</g>
<g>
</g>
<g>
</g>
<g>
</g>
<g>
</g>
<g>
</g>
</svg>
