<?xml version="1.0" encoding="iso-8859-1"?>
<!-- Generator: Adobe Illustrator 19.0.0, SVG Export Plug-In . SVG Version: 6.00 Build 0)  -->
<svg version="1.1" id="Capa_1" xmlns="http://www.w3.org/2000/svg" xmlns:xlink="http://www.w3.org/1999/xlink" x="0px" y="0px"
	 viewBox="0 0 512 512" style="enable-background:new 0 0 512 512;" xml:space="preserve">
<g>
	<g>
		<path d="M286.768,325.894V72.986C286.768,32.741,254.026,0,213.781,0s-72.986,32.741-72.986,72.986v252.908
			c-21.933,20.304-34.382,48.601-34.382,78.737C106.414,463.834,154.58,512,213.782,512c59.204,0,107.368-48.166,107.368-107.369
			C321.15,374.495,308.701,346.198,286.768,325.894z M213.781,481.98c-42.65,0-77.349-34.699-77.349-77.35
			c0-23.491,10.497-45.439,28.798-60.217c3.826-3.089,5.719-7.67,5.554-12.233c0.008-0.202,0.031-0.4,0.031-0.604V72.986
			c0-23.693,19.275-42.966,42.966-42.966c23.693,0,42.967,19.275,42.967,42.966v258.59c0,0.2,0.022,0.394,0.03,0.592
			c-0.169,4.566,1.724,9.153,5.553,12.244c18.302,14.78,28.799,36.727,28.799,60.218C291.13,447.282,256.431,481.98,213.781,481.98z
			"/>
	</g>
</g>
<g>
	<g>
		<path d="M228.791,358.343V74.161c0-8.289-6.72-15.01-15.01-15.01s-15.01,6.72-15.01,15.01v284.182
			c-19.83,6.363-34.227,24.973-34.227,46.889c0,27.15,22.087,49.237,49.237,49.237s49.237-22.087,49.237-49.237
			C263.018,383.316,248.621,364.707,228.791,358.343z M213.781,424.45c-10.596,0-19.218-8.621-19.218-19.218
			c0-10.596,8.621-19.217,19.218-19.217s19.218,8.621,19.218,19.217C232.998,415.829,224.377,424.45,213.781,424.45z"/>
	</g>
</g>
<g>
	<g>
		<path d="M390.576,82.295h-67.425c-8.289,0-15.01,6.72-15.01,15.01c0,8.289,6.72,15.01,15.01,15.01h67.425
			c8.289,0,15.01-6.72,15.01-15.01C405.586,89.015,398.865,82.295,390.576,82.295z"/>
	</g>
</g>
<g>
	<g>
		<path d="M349.172,131.616h-26.021c-8.289,0-15.01,6.72-15.01,15.01s6.72,15.01,15.01,15.01h26.021c8.289,0,15.01-6.72,15.01-15.01
			S357.461,131.616,349.172,131.616z"/>
	</g>
</g>
<g>
	<g>
		<path d="M390.576,180.715h-67.425c-8.289,0-15.01,6.72-15.01,15.01s6.72,15.01,15.01,15.01h67.425c8.289,0,15.01-6.72,15.01-15.01
			S398.865,180.715,390.576,180.715z"/>
	</g>
</g>
<g>
	<g>
		<path d="M349.172,230.036h-26.021c-8.289,0-15.01,6.72-15.01,15.01s6.72,15.01,15.01,15.01h26.021c8.289,0,15.01-6.72,15.01-15.01
			S357.461,230.036,349.172,230.036z"/>
	</g>
</g>
<g>
</g>
<g>
</g>
<g>
</g>
<g>
</g>
<g>
</g>
<g>
</g>
<g>
</g>
<g>
</g>
<g>
</g>
<g>
</g>
<g>
</g>
<g>
</g>
<g>
</g>
<g>
</g>
<g>
</g>
</svg>
