<?xml version="1.0" encoding="iso-8859-1"?>
<!-- Generator: Adobe Illustrator 18.1.1, SVG Export Plug-In . SVG Version: 6.00 Build 0)  -->
<svg version="1.1" id="Capa_1" xmlns="http://www.w3.org/2000/svg" xmlns:xlink="http://www.w3.org/1999/xlink" x="0px" y="0px"
	 viewBox="0 0 51.218 51.218" style="enable-background:new 0 0 51.218 51.218;" xml:space="preserve">
<g>
	<g>
		<path style="fill:#030104;" d="M25.609,0C11.488,0,0,11.488,0,25.609s11.488,25.609,25.609,25.609S51.218,39.73,51.218,25.609
			S39.73,0,25.609,0z M49.218,25.609c0,0.997-0.069,1.977-0.189,2.942l-2.241-0.394c0.114-0.893,0.192-1.795,0.192-2.718
			c0-0.923-0.078-1.827-0.192-2.719l2.198-0.389C49.135,23.404,49.218,24.496,49.218,25.609z M17.37,45.155l-0.82,2.253
			c-1.951-0.813-3.767-1.885-5.413-3.165l1.536-1.831C14.111,43.51,15.679,44.446,17.37,45.155z M19.247,45.843
			c1.704,0.533,3.506,0.83,5.362,0.917v2.433c-2.147-0.09-4.22-0.467-6.183-1.096L19.247,45.843z M26.609,46.76
			c1.856-0.087,3.659-0.385,5.363-0.917l0.82,2.254c-1.963,0.629-4.036,1.006-6.184,1.096L26.609,46.76L26.609,46.76z M33.85,45.155
			c1.69-0.71,3.259-1.646,4.696-2.744l1.537,1.83c-1.646,1.282-3.463,2.354-5.414,3.167L33.85,45.155z M25.609,44.811
			c-10.681,0-19.371-8.689-19.371-19.371c0-10.681,8.69-19.371,19.371-19.371c10.682,0,19.371,8.689,19.371,19.371
			C44.98,36.121,36.291,44.811,25.609,44.811z M2,25.609c0-1.113,0.083-2.206,0.233-3.278l2.198,0.388
			c-0.114,0.893-0.193,1.797-0.193,2.721c0,0.923,0.079,1.825,0.192,2.718l-2.24,0.395C2.069,27.587,2,26.607,2,25.609z
			 M4.773,20.748l-2.178-0.385c0.467-2.051,1.199-4.001,2.163-5.811l1.882,1.086C5.81,17.236,5.178,18.949,4.773,20.748z
			 M4.772,30.126c0.405,1.801,1.037,3.513,1.865,5.11L4.622,36.4c-0.947-1.834-1.663-3.805-2.104-5.877L4.772,30.126z M33.849,5.725
			l0.711-1.958c1.923,0.791,3.719,1.828,5.349,3.073l-1.365,1.628C37.107,7.37,35.54,6.434,33.849,5.725z M31.972,5.037
			c-1.704-0.533-3.506-0.831-5.362-0.917V2.025c2.106,0.088,4.143,0.451,6.072,1.058L31.972,5.037z M24.61,4.12
			c-1.856,0.086-3.658,0.384-5.361,0.916l-0.711-1.953c1.93-0.607,3.966-0.969,6.073-1.058L24.61,4.12L24.61,4.12z M17.371,5.724
			c-1.69,0.709-3.258,1.645-4.695,2.743L11.311,6.84c1.63-1.245,3.425-2.282,5.348-3.072L17.371,5.724z M44.58,15.64l1.882-1.087
			c0.964,1.81,1.695,3.76,2.162,5.811l-2.179,0.385C46.04,18.95,45.408,17.238,44.58,15.64z M46.445,30.128l2.255,0.396
			c-0.44,2.072-1.156,4.042-2.103,5.875l-2.017-1.163C45.409,33.64,46.041,31.928,46.445,30.128z M45.446,12.831l-1.87,1.081
			c-0.987-1.533-2.166-2.924-3.5-4.156l1.373-1.638C42.978,9.504,44.321,11.091,45.446,12.831z M9.771,8.117l1.374,1.637
			c-1.334,1.231-2.514,2.623-3.501,4.155l-1.87-1.08C6.899,11.089,8.241,9.503,9.771,8.117z M5.613,38.138l2.028-1.172
			c0.987,1.534,2.167,2.926,3.501,4.158L9.61,42.95C8.075,41.534,6.73,39.914,5.613,38.138z M41.609,42.95l-1.532-1.826
			c1.334-1.231,2.513-2.624,3.5-4.156l2.029,1.17C44.489,39.913,43.144,41.533,41.609,42.95z"/>
		<path style="fill:#030104;" d="M39.477,22.164c-0.735-1.189-2.17-1.959-3.649-1.959c-0.472,0-0.926,0.079-1.412,0.264l-5.554,3.03
			c-0.607,0.224-1.047,0.563-1.325,0.973c-0.239-0.436-0.609-0.788-1.064-0.993c0.293-0.173,0.574-0.416,0.828-0.732l6.111-7.582
			c0.603-0.744,0.826-1.617,0.639-2.453c-0.192-0.838-0.772-1.527-1.627-1.933c-0.08-0.042-2.027-1.021-4.818-1.021l-0.342,0.006
			c-3.012,0.087-5.042,1.714-5.075,1.747c-1.598,0.99-2.372,3.229-1.694,5.062l3.029,5.552c0.237,0.649,0.609,1.102,1.053,1.372
			c-0.498,0.233-0.898,0.637-1.122,1.139c-0.136-0.16-0.292-0.316-0.475-0.464l-7.582-6.113c-0.568-0.458-1.218-0.7-1.876-0.7
			c-1.069,0-2.009,0.636-2.512,1.691c-0.044,0.087-1.102,2.19-1.016,5.159c0.088,3.012,1.716,5.043,1.747,5.077
			c0.737,1.188,2.17,1.957,3.652,1.957c0.472,0,0.923-0.08,1.411-0.265l5.553-3.028c0.634-0.233,1.089-0.59,1.363-1.021
			c0.305,0.404,0.738,0.702,1.241,0.834c-0.122,0.113-0.241,0.231-0.354,0.371l-6.113,7.582c-0.599,0.744-0.825,1.617-0.634,2.455
			c0.188,0.838,0.77,1.525,1.623,1.933c0.083,0.042,2.028,1.019,4.82,1.019l0.341-0.004c3.011-0.088,5.043-1.715,5.076-1.746
			c1.597-0.99,2.371-3.231,1.695-5.062l-3.031-5.554c-0.283-0.77-0.742-1.292-1.302-1.52c0.209-0.193,0.38-0.423,0.506-0.682
			c0.168,0.253,0.373,0.498,0.652,0.724l7.582,6.11c0.568,0.459,1.218,0.702,1.876,0.702c1.066,0,2.01-0.639,2.51-1.689
			c0.045-0.088,1.102-2.189,1.016-5.162C41.138,24.227,39.509,22.197,39.477,22.164z M21.403,16.161
			c-0.493-1.344,0.096-3.048,1.365-3.839c0.018-0.014,1.85-1.482,4.524-1.56l0.312-0.004c2.538,0,4.346,0.901,4.377,0.917
			c0.582,0.277,0.973,0.725,1.093,1.256c0.121,0.534-0.034,1.104-0.44,1.606l-6.113,7.582c-0.754,0.938-1.61,0.869-2.087-0.406
			L21.403,16.161z M21.946,27.04l-5.554,3.027c-0.31,0.115-0.646,0.174-0.998,0.174c-1.126,0-2.251-0.596-2.84-1.535
			c-0.013-0.02-1.481-1.851-1.559-4.527c-0.078-2.702,0.896-4.657,0.912-4.688c0.342-0.72,0.929-1.133,1.614-1.133
			c0.426,0,0.858,0.166,1.251,0.482l7.582,6.11c0.47,0.38,0.705,0.806,0.646,1.165C22.941,26.475,22.582,26.801,21.946,27.04z
			 M24.255,25.56c0-0.708,0.577-1.285,1.285-1.285c0.708,0,1.285,0.576,1.285,1.285c0,0.709-0.576,1.285-1.285,1.285
			S24.255,26.269,24.255,25.56z M30.503,34.718c0.492,1.342-0.095,3.048-1.363,3.837c-0.018,0.017-1.848,1.483-4.525,1.56
			l-0.312,0.006c-2.537,0-4.348-0.902-4.377-0.916c-0.584-0.28-0.971-0.727-1.092-1.26c-0.121-0.531,0.036-1.102,0.44-1.604
			l6.112-7.582c0.342-0.424,0.716-0.657,1.051-0.657c0.408,0,0.775,0.362,1.038,1.062L30.503,34.718z M39.311,31.954
			c-0.343,0.721-0.931,1.134-1.613,1.134c-0.428,0-0.86-0.165-1.248-0.48l-7.582-6.112c-0.471-0.379-0.708-0.803-0.649-1.165
			c0.062-0.358,0.421-0.685,1.056-0.924l5.554-3.03c0.309-0.113,0.646-0.17,1-0.17c1.125,0,2.25,0.596,2.836,1.534
			c0.016,0.018,1.482,1.848,1.56,4.525C40.3,29.969,39.328,31.924,39.311,31.954z"/>
	</g>
</g>
<g>
</g>
<g>
</g>
<g>
</g>
<g>
</g>
<g>
</g>
<g>
</g>
<g>
</g>
<g>
</g>
<g>
</g>
<g>
</g>
<g>
</g>
<g>
</g>
<g>
</g>
<g>
</g>
<g>
</g>
</svg>
